# xmcd CD database file
#
# Track frame offsets:
#	150
#	18848
#	34368
#	50296
#	66125
#	85353
#	101133
#	119033
#	134564
#	146121
#	167843
#	197004
#	223909
#	234773
#	262983
#
# Disc length: 3847 seconds
#
# Revision: 0
# Processed by: cddbd v1.5.2PL0 Copyright (c) Steve Scherf et al.
# Submitted via: CDex 1.70beta2
#
DISCID=e10f050f
DTITLE=Janet Seidel - CHARADE - Henry Mancini Song Book
DYEAR=2007
DGENRE=Jazz
TTITLE0=Dreamsville
TTITLE1=Slow Hot Wind
TTITLE2=Straight to Baby
TTITLE3=Whistling Away the Dark
TTITLE4=Days of Wine and Roses
TTITLE5=Charade
TTITLE6=Nothing to Loose
TTITLE7=Dear Heart
TTITLE8=The Loss of Love
TTITLE9=Mr. Lucky
TTITLE10=Moment to Moment
TTITLE11=Crazy World
TTITLE12=(I Love You) Don't You Forget It
TTITLE13=Two for the Road
TTITLE14=Moon River
EXTD=YEAR: 2007
EXTT0=
EXTT1=
EXTT2=
EXTT3=
EXTT4=
EXTT5=
EXTT6=
EXTT7=
EXTT8=
EXTT9=
EXTT10=
EXTT11=
EXTT12=
EXTT13=
EXTT14=
PLAYORDER=
